{
 "cells": [
  {
   "cell_type": "markdown",
   "metadata": {},
   "source": [
    "### FFmpeg\n",
    "* 컴퓨터에 다운받아 사용할 수 있는 CLI 도구로 콘솔에서 실행 가능\n",
    "* 동영상을 압축, 썸네일 추출, 오디오 추출\n",
    "* mac에선 `brew install ffmpeg`를 통해 설치 가능\n",
    "* `ffmpeg -i files/podcast.mp4 -vn files/audio.mp3`\n",
    "    * -vn: 영상을 무시하고 소리만 추출"
   ]
  },
  {
   "cell_type": "markdown",
   "metadata": {},
   "source": [
    "### subprocess\n",
    "* 파이썬 코드에서 command를 실행이 가능하게 만드는 라이브러리\n",
    "* subprocess.run(command)\n",
    "\n",
    "### pydub\n",
    "* 음성 파일을 분 단위로 쪼갤 수 있음"
   ]
  },
  {
   "cell_type": "code",
   "execution_count": 5,
   "metadata": {},
   "outputs": [],
   "source": [
    "# 파이썬 코드에서 command를 실행하게 해주는 역할\n",
    "import math\n",
    "import subprocess\n",
    "from pydub import AudioSegment"
   ]
  },
  {
   "cell_type": "code",
   "execution_count": 18,
   "metadata": {},
   "outputs": [],
   "source": [
    "def extract_audio_from_video(video_path, audio_path):\n",
    "    command = [\"ffmpeg\", \"-i\", video_path, \"-vn\", audio_path]\n",
    "    subprocess.run(command)\n",
    "    \n",
    "def cut_audio_in_chunks(audio_path, chunk_size, chunks_folder):\n",
    "    track = AudioSegment.from_mp3(audio_path)\n",
    "    chunk_len = chunk_size * 60 * 1000\n",
    "    chunks = math.ceil(len(track) / chunk_len)\n",
    "    for i in range(chunks):\n",
    "        start_time = i * chunk_len\n",
    "        end_time = (i+1) * chunk_len\n",
    "        chunk = track[start_time:end_time]\n",
    "        chunk.export(f\"{chunks_folder}/chunk_{i}.mp3\")"
   ]
  },
  {
   "cell_type": "code",
   "execution_count": 4,
   "metadata": {},
   "outputs": [
    {
     "name": "stderr",
     "output_type": "stream",
     "text": [
      "ffmpeg version 6.0 Copyright (c) 2000-2023 the FFmpeg developers\n",
      "  built with Apple clang version 15.0.0 (clang-1500.0.40.1)\n",
      "  configuration: --prefix=/opt/homebrew/Cellar/ffmpeg/6.0_2 --enable-shared --enable-pthreads --enable-version3 --cc=clang --host-cflags= --host-ldflags='-Wl,-ld_classic' --enable-ffplay --enable-gnutls --enable-gpl --enable-libaom --enable-libaribb24 --enable-libbluray --enable-libdav1d --enable-libjxl --enable-libmp3lame --enable-libopus --enable-librav1e --enable-librist --enable-librubberband --enable-libsnappy --enable-libsrt --enable-libsvtav1 --enable-libtesseract --enable-libtheora --enable-libvidstab --enable-libvmaf --enable-libvorbis --enable-libvpx --enable-libwebp --enable-libx264 --enable-libx265 --enable-libxml2 --enable-libxvid --enable-lzma --enable-libfontconfig --enable-libfreetype --enable-frei0r --enable-libass --enable-libopencore-amrnb --enable-libopencore-amrwb --enable-libopenjpeg --enable-libspeex --enable-libsoxr --enable-libzmq --enable-libzimg --disable-libjack --disable-indev=jack --enable-videotoolbox --enable-audiotoolbox --enable-neon\n",
      "  libavutil      58.  2.100 / 58.  2.100\n",
      "  libavcodec     60.  3.100 / 60.  3.100\n",
      "  libavformat    60.  3.100 / 60.  3.100\n",
      "  libavdevice    60.  1.100 / 60.  1.100\n",
      "  libavfilter     9.  3.100 /  9.  3.100\n",
      "  libswscale      7.  1.100 /  7.  1.100\n",
      "  libswresample   4. 10.100 /  4. 10.100\n",
      "  libpostproc    57.  1.100 / 57.  1.100\n",
      "Input #0, mov,mp4,m4a,3gp,3g2,mj2, from './files/podcast.mp4':\n",
      "  Metadata:\n",
      "    major_brand     : mp42\n",
      "    minor_version   : 0\n",
      "    compatible_brands: isommp42\n",
      "    creation_time   : 2023-10-15T22:13:37.000000Z\n",
      "  Duration: 00:12:17.79, start: 0.000000, bitrate: 487 kb/s\n",
      "  Stream #0:0[0x1](und): Video: h264 (Main) (avc1 / 0x31637661), yuv420p(tv, bt709, progressive), 1280x720 [SAR 1:1 DAR 16:9], 355 kb/s, 29.97 fps, 29.97 tbr, 30k tbn (default)\n",
      "    Metadata:\n",
      "      creation_time   : 2023-10-15T22:13:37.000000Z\n",
      "      handler_name    : ISO Media file produced by Google Inc. Created on: 10/15/2023.\n",
      "      vendor_id       : [0][0][0][0]\n",
      "  Stream #0:1[0x2](eng): Audio: aac (LC) (mp4a / 0x6134706D), 44100 Hz, stereo, fltp, 128 kb/s (default)\n",
      "    Metadata:\n",
      "      creation_time   : 2023-10-15T22:13:37.000000Z\n",
      "      handler_name    : ISO Media file produced by Google Inc. Created on: 10/15/2023.\n",
      "      vendor_id       : [0][0][0][0]\n",
      "Stream mapping:\n",
      "  Stream #0:1 -> #0:0 (aac (native) -> mp3 (libmp3lame))\n",
      "Press [q] to stop, [?] for help\n",
      "Output #0, mp3, to './files/podcast.mp3':\n",
      "  Metadata:\n",
      "    major_brand     : mp42\n",
      "    minor_version   : 0\n",
      "    compatible_brands: isommp42\n",
      "    TSSE            : Lavf60.3.100\n",
      "  Stream #0:0(eng): Audio: mp3, 44100 Hz, stereo, fltp (default)\n",
      "    Metadata:\n",
      "      creation_time   : 2023-10-15T22:13:37.000000Z\n",
      "      handler_name    : ISO Media file produced by Google Inc. Created on: 10/15/2023.\n",
      "      vendor_id       : [0][0][0][0]\n",
      "      encoder         : Lavc60.3.100 libmp3lame\n",
      "size=   11529kB time=00:12:17.77 bitrate= 128.0kbits/s speed= 105x       \n",
      "video:0kB audio:11529kB subtitle:0kB other streams:0kB global headers:0kB muxing overhead: 0.002922%\n"
     ]
    }
   ],
   "source": [
    "extract_audio_from_video(\"./files/podcast.mp4\", \"./files/podcast.mp3\")"
   ]
  },
  {
   "cell_type": "code",
   "execution_count": 8,
   "metadata": {},
   "outputs": [
    {
     "name": "stdout",
     "output_type": "stream",
     "text": [
      "mp3 길이: 약 12분\n"
     ]
    }
   ],
   "source": [
    "track = AudioSegment.from_mp3(\"./files/podcast.mp3\")\n",
    "print(f\"mp3 길이: 약 {int(track.duration_seconds / 60)}분\")"
   ]
  },
  {
   "cell_type": "code",
   "execution_count": 20,
   "metadata": {},
   "outputs": [],
   "source": [
    "cut_audio_in_chunks(\"./files/podcast.mp3\", 10, \"./files/chunks\")"
   ]
  },
  {
   "cell_type": "code",
   "execution_count": 25,
   "metadata": {},
   "outputs": [],
   "source": [
    "import openai\n",
    "import glob\n",
    "\n",
    "def transcribe_chunks(chunk_folder, destination):\n",
    "    files = glob.glob(f\"{chunk_folder}/*.mp3\")\n",
    "    final_transcript = \"\"\n",
    "    for file in files:\n",
    "        with open(file, \"rb\") as audio_file, open(destination, \"a\") as text_file:\n",
    "            transcript = openai.Audio.transcribe(\n",
    "                \"whisper-1\", \n",
    "                audio_file\n",
    "            )\n",
    "            text_file.write(transcript[\"text\"])\n",
    "        \n",
    "transcribe_chunks(\"./files/chunks\", \"./files/transcript.txt\")"
   ]
  },
  {
   "cell_type": "code",
   "execution_count": null,
   "metadata": {},
   "outputs": [],
   "source": []
  }
 ],
 "metadata": {
  "kernelspec": {
   "display_name": "env",
   "language": "python",
   "name": "python3"
  },
  "language_info": {
   "codemirror_mode": {
    "name": "ipython",
    "version": 3
   },
   "file_extension": ".py",
   "mimetype": "text/x-python",
   "name": "python",
   "nbconvert_exporter": "python",
   "pygments_lexer": "ipython3",
   "version": "3.11.4"
  }
 },
 "nbformat": 4,
 "nbformat_minor": 2
}
